<svg xmlns="http://www.w3.org/2000/svg" width="800" height="800" viewBox="0 0 800 800" version="1.1">
	<rect x="0" y="0" width="100%" height="100%" fill="#ffffff" />
	<path d="M 81.248 400.248 L 81.500 719.500 400 719.500 L 718.500 719.500 718.500 400.500 L 718.500 81.500 399.748 81.248 L 80.997 80.997 81.248 400.248 M 104 400.500 L 104 697 400 697 L 696 697 696 400.500 L 696 104 400 104 L 104 104 104 400.500 M 317.500 173.666 C 312.338 174.786, 302.999 178.670, 298.221 181.683 C 286.796 188.888, 278.665 198.961, 273.344 212.500 C 270.837 218.880, 270.589 220.696, 270.547 233 C 270.491 249.208, 272.580 257.037, 279.992 268.390 C 292.303 287.249, 312.048 296.919, 335.676 295.662 C 352.705 294.756, 364.532 289.611, 376.096 278.078 C 387.165 267.040, 393.018 251.656, 392.985 233.685 C 392.935 205.933, 375.395 182.334, 349.068 174.596 C 343.940 173.089, 323.002 172.472, 317.500 173.666 M 160 174.518 C 160 174.803, 167.262 187.740, 176.138 203.268 C 185.014 218.796, 194.464 235.439, 197.138 240.252 L 202 249.005 202 271.532 L 202 294.060 214.750 293.780 L 227.500 293.500 228 270 C 228.552 244.047, 227.968 246.629, 236.486 232.500 C 243.887 220.226, 270 175.042, 270 174.511 C 270 174.230, 263.752 174, 256.115 174 L 242.230 174 235.731 185.750 C 232.157 192.213, 226.224 203.012, 222.546 209.750 C 218.869 216.488, 215.742 222, 215.598 222 C 215.454 222, 209.523 211.213, 202.418 198.029 L 189.500 174.058 174.750 174.029 C 166.637 174.013, 160 174.233, 160 174.518 M 413.202 218.274 L 413.500 262.609 417.259 270.212 C 425.890 287.670, 444.594 297.286, 466.418 295.486 C 485.495 293.913, 500.383 283.530, 507.147 267.081 C 509.399 261.603, 509.448 260.689, 509.787 217.750 L 510.132 174 497.066 174 L 484 174 484 214.788 C 484 255.102, 483.974 255.628, 481.750 260.025 C 478.470 266.509, 472.806 270.085, 464.797 270.728 C 452.589 271.708, 444.418 267.629, 440.303 258.500 C 438.678 254.895, 438.474 250.549, 438.237 214.500 L 437.974 174.500 425.439 174.220 L 412.903 173.940 413.202 218.274 M 535.242 233.750 L 535.500 293.500 548.250 293.780 L 561 294.060 561 272.030 L 561 250 567.507 250 L 574.013 250 578.308 256.750 C 580.670 260.462, 584.746 267.100, 587.366 271.500 C 589.986 275.900, 594.081 282.650, 596.465 286.500 L 600.801 293.500 615.400 293.678 C 624.976 293.795, 630 293.497, 630 292.814 C 630 292.240, 623.670 281.653, 615.932 269.287 C 608.195 256.920, 602.008 246.694, 602.182 246.563 C 602.357 246.431, 604.612 245.323, 607.194 244.100 C 616.407 239.735, 621.623 233.546, 624.537 223.521 C 629.335 207.016, 621.666 187.579, 607.262 179.739 C 598.203 174.809, 592.086 174.031, 562.242 174.015 L 534.984 174 535.242 233.750 M 321.324 197.439 C 312.206 200.291, 304.673 207.202, 300.135 216.880 C 297.766 221.932, 297.500 223.662, 297.502 234 C 297.503 244.556, 297.740 246.012, 300.381 251.734 C 303.357 258.182, 310.056 265.426, 315.778 268.385 C 317.478 269.264, 322.045 270.529, 325.926 271.194 C 342.339 274.009, 356.703 266.387, 363.899 251.046 C 366.228 246.080, 366.500 244.298, 366.500 234 C 366.500 223.505, 366.256 221.979, 363.710 216.542 C 360.091 208.814, 356.736 204.490, 352.074 201.547 C 343.863 196.363, 330.482 194.576, 321.324 197.439 M 560 211.872 L 560 227 574.250 226.998 C 589.891 226.997, 593.504 226.030, 597.316 220.828 C 600.100 217.029, 600.147 208.034, 597.403 204.280 C 593.580 199.050, 588.982 197.669, 573.778 197.183 L 560 196.744 560 211.872 M 295.124 331.578 C 280.448 335.525, 265.681 347.303, 258.863 360.500 C 252.845 372.147, 251.710 376.914, 251.734 390.441 C 251.751 400.677, 252.149 403.721, 254.366 410.578 C 260.449 429.389, 274.292 443.472, 293.333 450.220 C 298.517 452.057, 301.732 452.413, 313.500 452.453 C 326.501 452.497, 328.057 452.295, 335.305 449.628 C 347.389 445.183, 359.099 435.538, 365.286 424.937 C 368.845 418.839, 372.601 406.809, 373.385 399 C 374.254 390.345, 372.667 377.719, 369.603 368.909 C 363.261 350.672, 347.892 336.506, 329 331.485 C 321.855 329.587, 302.329 329.640, 295.124 331.578 M 427.972 331.877 C 408.056 338.251, 393.056 353.932, 388.537 373.103 C 386.585 381.386, 386.571 397.886, 388.510 405.540 C 391.302 416.559, 397.617 427.798, 405.409 435.611 C 417.170 447.405, 429.405 452.340, 447 452.387 C 463.268 452.431, 474.037 448.490, 484.753 438.569 C 495.306 428.798, 500.697 415.193, 501.718 395.750 L 502.283 385 474.642 385 L 447 385 447 395.500 L 447 406 461.111 406 L 475.223 406 474.544 409.750 C 473.571 415.128, 469.607 420.659, 464.326 424.008 C 459.832 426.858, 451.441 429.141, 447.500 428.585 C 433.883 426.667, 427.620 423.349, 421.852 415 C 416.250 406.892, 413.512 398.170, 413.532 388.500 C 413.546 381.621, 413.985 379.589, 416.666 374 C 427.167 352.107, 453.002 346.086, 467.458 362.164 C 469.956 364.943, 472 367.895, 472 368.725 C 472 369.774, 472.685 370.077, 474.250 369.721 C 476.870 369.124, 497.272 361.864, 497.976 361.278 C 499.037 360.394, 492.323 349.441, 488.060 345.102 C 482.787 339.734, 471.898 333.729, 463.448 331.528 C 455.095 329.353, 435.249 329.548, 427.972 331.877 M 559.547 331.538 C 535.184 338.221, 517.687 359.555, 515.447 385.309 C 511.873 426.415, 543.997 457.842, 584.522 452.885 C 600.301 450.955, 612.437 444.857, 622.392 433.856 C 633.184 421.931, 637.453 409.918, 637.446 391.500 C 637.442 381.082, 637.091 378.499, 634.779 371.904 C 627.315 350.603, 612.679 336.606, 592.540 331.509 C 585.137 329.635, 566.424 329.651, 559.547 331.538 M 171.003 390.750 L 171.006 450.500 208.503 450.624 L 246 450.748 246 439.374 L 246 428 221 428 L 196 428 196 379.500 L 196 331 183.500 331 L 171 331 171.003 390.750 M 302.500 354.399 C 296.195 356.393, 292.617 358.574, 288.908 362.685 C 280.734 371.744, 277.422 381.509, 278.297 393.975 C 278.950 403.280, 280.061 407.024, 284.232 413.973 C 290.627 424.628, 300.964 429.618, 314.915 428.785 C 329.686 427.902, 341.080 418.390, 345.801 403 C 350.633 387.247, 344.303 366.760, 332.110 358.692 C 324.196 353.454, 311.367 351.594, 302.500 354.399 M 566.324 354.381 C 553.604 358.536, 544.507 369.876, 541.866 384.869 C 538.837 402.066, 549.572 422.775, 563.719 427.025 C 570.860 429.170, 581.463 429.404, 587.208 427.543 C 605.036 421.769, 615.408 401.254, 610.487 381.500 C 605.920 363.166, 595.501 353.957, 578.608 353.322 C 573.646 353.135, 568.880 353.546, 566.324 354.381 M 200 548.500 L 200 608 213 608 L 226 608 226 583.481 L 226 558.962 248.750 559.231 L 271.500 559.500 271.768 583.750 L 272.036 608 284.518 608 L 297 608 297 548.470 L 297 488.940 284.468 489.220 L 271.935 489.500 271.718 512 L 271.500 534.500 248.250 534.768 L 225 535.037 225 512.018 L 225 489 212.500 489 L 200 489 200 548.500 M 323 548.500 L 323 608 360.500 608 L 398 608 398 596 L 398 584 373 584 L 348 584 348 572.107 C 348 563.486, 348.344 560.097, 349.250 559.788 C 349.938 559.554, 359.613 559.494, 370.750 559.655 L 391 559.947 391 547.974 L 391 536 369.468 536 L 347.937 536 348.218 524.250 L 348.500 512.500 372.750 512.232 L 397 511.964 397 500.482 L 397 489 360 489 L 323 489 323 548.500 M 420 548.500 L 420 608 433 608 L 446 608 446 587 L 446 566 451.939 566 L 457.879 566 463.272 574.750 C 466.238 579.563, 471.980 589.013, 476.033 595.750 L 483.402 608 497.701 608 C 505.565 608, 512 607.601, 512 607.113 C 512 606.626, 505.706 596.203, 498.014 583.951 L 484.028 561.676 489.764 558.784 C 497.172 555.049, 500.437 551.846, 503.784 545.030 C 506.262 539.986, 506.500 538.488, 506.500 527.979 C 506.500 516.972, 506.353 516.160, 503.208 509.771 C 499.523 502.285, 494.309 497.224, 486.537 493.587 C 478.119 489.647, 472.324 489, 445.451 489 L 420 489 420 548.500 M 529 548.500 L 529 608 567.032 608 L 605.063 608 604.782 596.250 L 604.500 584.500 579.750 584.233 L 555 583.965 555 571.983 L 555 560 576 560 L 597 560 597 548 L 597 536 576 536 L 555 536 555 524.018 L 555 512.036 579.250 511.768 L 603.500 511.500 603.783 500.250 L 604.066 489 566.533 489 L 529 489 529 548.500 M 446 527.500 L 446 543 456.750 542.994 C 468.646 542.988, 473.931 541.916, 477.543 538.776 C 482.506 534.461, 483.253 523.972, 479.020 518.029 C 475.778 513.476, 470.505 512, 457.480 512 L 446 512 446 527.500" stroke="none" fill="#000000" fill-rule="evenodd"/>
</svg>