<svg width="1600" height="1200" viewBox="0 0 1600 1200" fill="none" xmlns="http://www.w3.org/2000/svg">
  <rect width="1600" height="1200" fill="#08111D"/>
  <g opacity="0.8" fill="#D9E8FF">
    <circle cx="180" cy="140" r="2"/><circle cx="300" cy="240" r="1.4"/><circle cx="440" cy="110" r="1.8"/><circle cx="640" cy="170" r="1.5"/>
    <circle cx="840" cy="120" r="1.4"/><circle cx="1030" cy="190" r="1.5"/><circle cx="1380" cy="130" r="1.8"/><circle cx="1490" cy="230" r="1.3"/>
  </g>
  <radialGradient id="glow" cx="0" cy="0" r="1" gradientUnits="userSpaceOnUse" gradientTransform="translate(798 682) rotate(90) scale(220 220)">
    <stop stop-color="#F7D8AA" stop-opacity="0.88"/>
    <stop offset="1" stop-color="#F7D8AA" stop-opacity="0"/>
  </radialGradient>
  <circle cx="798" cy="682" r="220" fill="url(#glow)"/>
  <ellipse cx="800" cy="1010" rx="720" ry="240" fill="#0C1E31"/>
  <path d="M0 930C160 880 280 860 410 883C593 916 681 1030 870 1018C1040 1008 1120 876 1280 846C1396 824 1508 842 1600 872V1200H0V930Z" fill="#0F2740"/>
  <ellipse cx="800" cy="770" rx="210" ry="68" fill="#173C5C" fill-opacity="0.9"/>
  <path d="M798 604C758 650 742 690 742 730C742 776 766 808 798 808C830 808 854 776 854 730C854 690 838 650 798 604Z" fill="#FFD3A6"/>
  <path d="M798 624C778 660 770 688 770 718C770 747 782 770 798 770C814 770 826 747 826 718C826 688 818 660 798 624Z" fill="#FFF0C9"/>
  <path d="M688 760C730 708 770 688 798 688C826 688 866 708 908 760" stroke="#F6B8A3" stroke-width="16" stroke-linecap="round"/>
  <path d="M630 786C690 824 742 840 798 840C854 840 906 824 966 786" stroke="#8DD5D2" stroke-opacity="0.4" stroke-width="5" stroke-linecap="round"/>
</svg>
