<svg width="1600" height="1200" viewBox="0 0 1600 1200" fill="none" xmlns="http://www.w3.org/2000/svg">
  <rect width="1600" height="1200" fill="#07111F"/>
  <g opacity="0.95">
    <circle cx="1160" cy="230" r="120" fill="#F6E7BF"/>
    <circle cx="1120" cy="210" r="18" fill="#FFF8E6"/>
  </g>
  <g opacity="0.85" fill="#DDEBFF">
    <circle cx="250" cy="160" r="2.5"/><circle cx="320" cy="240" r="1.5"/><circle cx="410" cy="130" r="2"/><circle cx="520" cy="210" r="1.8"/>
    <circle cx="1440" cy="150" r="2.5"/><circle cx="1370" cy="250" r="1.4"/><circle cx="1260" cy="120" r="2"/><circle cx="980" cy="110" r="1.7"/>
    <circle cx="118" cy="330" r="1.5"/><circle cx="760" cy="260" r="1.8"/><circle cx="890" cy="180" r="1.5"/><circle cx="1490" cy="320" r="1.7"/>
  </g>
  <ellipse cx="780" cy="1080" rx="700" ry="240" fill="#0C2035"/>
  <ellipse cx="620" cy="900" rx="360" ry="150" fill="#12314C" fill-opacity="0.9"/>
  <ellipse cx="1030" cy="860" rx="440" ry="180" fill="#173955" fill-opacity="0.8"/>
  <path d="M0 900C130 850 220 820 360 840C520 865 560 980 730 995C894 1009 987 900 1130 878C1322 848 1452 890 1600 930V1200H0V900Z" fill="#10283F"/>
  <path d="M210 860C340 720 520 705 640 805C770 914 920 947 1110 885C1220 848 1360 848 1490 915" stroke="#7DD1D6" stroke-opacity="0.36" stroke-width="6" stroke-linecap="round"/>
  <path d="M250 890C450 870 600 910 790 968" stroke="#DDE7FF" stroke-opacity="0.3" stroke-width="3" stroke-linecap="round"/>
</svg>
